<?xml version="1.0" encoding="utf-8"?>
<!-- Generator: Adobe Illustrator 16.0.0, SVG Export Plug-In . SVG Version: 6.00 Build 0)  -->
<!DOCTYPE svg PUBLIC "-//W3C//DTD SVG 1.1//EN" "http://www.w3.org/Graphics/SVG/1.1/DTD/svg11.dtd">
<svg version="1.1" id="Your_design" xmlns="http://www.w3.org/2000/svg" xmlns:xlink="http://www.w3.org/1999/xlink" x="0px"
	 y="0px" width="326.57px" height="126.611px" viewBox="0 0 326.57 126.611" enable-background="new 0 0 326.57 126.611"
	 xml:space="preserve">
<g>
	<polygon fill="#F3BA2F" points="38.171,53.216 62.759,28.629 87.36,53.229 101.667,38.922 62.759,0.013 23.864,38.909 	"/>
	
		<rect x="3.644" y="53.201" transform="matrix(0.7071 0.7071 -0.7071 0.7071 48.8028 8.8146)" fill="#F3BA2F" width="20.233" height="20.235"/>
	<polygon fill="#F3BA2F" points="38.171,73.421 62.759,98.008 87.359,73.409 101.674,87.708 101.667,87.716 62.759,126.625 
		23.863,87.729 23.843,87.709 	"/>
	
		<rect x="101.64" y="53.203" transform="matrix(-0.7071 0.7071 -0.7071 -0.7071 235.5557 29.0754)" fill="#F3BA2F" width="20.234" height="20.233"/>
	<polygon fill="#F3BA2F" points="77.271,63.312 77.277,63.312 62.759,48.793 52.03,59.523 52.029,59.523 50.797,60.755 
		48.254,63.298 48.254,63.298 48.234,63.319 48.254,63.339 62.759,77.844 77.277,63.327 77.284,63.319 	"/>
</g>
<g>
	<path fill="#F3BA2F" d="M208.86,95.286l-2.375-9.024l8.265,0.38c2.026,0,3.04-1.045,3.04-3.136v-27.93h-22.04v51.396h-9.12V55.576
		h-22.135v39.9h-9.116V46.836h31.25V34.012c-10.64,0.76-22.135,1.14-34.485,1.14l-1.964-8.455c30.21,0,55.1-2.406,76.254-7.22
		l3.984,7.885c-9.69,2.534-20.863,4.498-34.669,5.89v13.585h31.156v38.665c0,6.524-3.195,9.785-9.211,9.785H208.86z"/>
	<path fill="#F3BA2F" d="M243.886,54.057h26.344c3.103-5.763,4.593-7.917,6.621-11.971h10.385c-1.458,2.66-3.579,6.65-6.365,11.971
		h45.696v8.739H309.94c-3.864,9.438-7.949,16.879-12.256,22.325c8.677,3.674,18.303,8.36,28.881,14.061l-6.176,7.979
		c-9.943-5.764-19.697-10.861-29.26-15.295c-10.768,9.372-24.795,14.281-42.085,14.726l-5.225-8.36
		c15.516-0.063,28.151-3.546,37.905-10.45c-9.058-3.8-17.575-6.966-25.555-9.5c3.04-4.939,6.111-10.102,9.215-15.485h-21.499V54.057
		z M326.57,27.741v21.47h-9.774V36.413h-63.244l-0.01,12.703h-9.638V27.741h37.681c-1.33-2.912-2.693-5.478-4.085-7.695l10.165-0.03
		c1.33,2.851,2.66,4.306,3.99,7.726H326.57z M276.025,62.796c-2.914,4.94-5.289,8.899-7.125,11.875
		c7.22,2.154,13.837,4.403,19.855,6.745c4.561-5.13,8.327-11.336,11.305-18.62H276.025z"/>
</g>
</svg>
